<?xml version="1.0" encoding="utf-8"?>
<!-- Generator: Adobe Illustrator 23.0.3, SVG Export Plug-In . SVG Version: 6.00 Build 0)  -->
<svg version="1.1" id="Слой_1" xmlns="http://www.w3.org/2000/svg" xmlns:xlink="http://www.w3.org/1999/xlink" x="0px" y="0px"
	 viewBox="0 0 512 512" enable-background="new 0 0 512 512" xml:space="preserve">
<path fill="#A16370" d="M479.2,257.3c-4.2-3.6-10.5-3.2-14.1,1c-3.6,4.2-3.2,10.5,1,14.1c7.5,6.5,9.8,17.3,5.6,26.3
	c-5.1,11-18.3,15.9-29.4,10.9l-39.6-17.8c-3.3-21.6-10.9-42.1-22.2-60.2l15.9,7.4c1.4,0.6,2.8,0.9,4.2,0.9c3.8,0,7.4-2.1,9.1-5.8
	c2.3-5,0.2-11-4.8-13.3L347.6,194c10.3-16.6,16.3-36.1,16.3-57c0-11-1.6-21.6-4.7-31.5c26.5-3,46.8-25.4,46.8-52.5
	C406,23.7,382.2,0,353.1,0c-24.6,0-45.2,16.5-51.1,39.3c-14-6.6-29.6-10.3-46-10.3c-16.5,0-32.1,3.7-46,10.3
	C203.9,16.5,183.3,0,158.7,0c-29.2,0-52.9,23.7-52.9,52.9c0,27.1,20.3,49.5,46.8,52.5c-3.1,10-4.7,20.6-4.7,31.5
	c0,20.9,6,40.5,16.4,57.1c0,0,0,0,0,0L42.4,250.9c-10.2,4.8-18,13.3-21.9,23.9c-3.9,10.6-3.4,22.1,1.4,32.3
	c7.1,15.3,22.5,24.4,38.5,24.4c5.8,0,11.6-1.2,17.2-3.7l29.5-13.3c0,0.7,0,1.3,0,2c0,28.1,7.2,55.4,20.8,79.3
	c-17.1,11.4-28.4,30.8-28.4,52.8c0,34.9,28.4,63.3,63.3,63.3c28.1,0,52-18.4,60.2-43.8c10.7,2.5,21.7,3.8,32.8,3.8
	c11.1,0,22.1-1.3,32.8-3.8c8.3,25.4,32.1,43.8,60.2,43.8c34.9,0,63.3-28.4,63.3-63.3c0-22-11.3-41.5-28.4-52.8
	c13.6-24,20.8-51.2,20.8-79.3c0-0.7,0-1.3,0-2l29.5,13.3c5.6,2.5,11.4,3.7,17.2,3.7c16,0,31.3-9.1,38.5-24.4
	C497.7,290.1,493.4,269.6,479.2,257.3z M353.1,20c18.1,0,32.9,14.8,32.9,32.9c0,17.7-13.8,32.1-31.5,32.9c-1.1,0-2.2,0.3-3.2,0.7
	c-7.6-14.2-18.2-26.6-31-36.1C321.6,33.2,335.7,20,353.1,20z M343.9,137c0,48.5-39.5,88-88,88s-88-39.5-88-88s39.5-88,88-88
	S343.9,88.5,343.9,137z M157.3,85.8c-17.7-0.7-31.5-15.2-31.5-32.9c0-18.1,14.8-32.9,32.9-32.9c17.4,0,31.5,13.2,32.8,30.3
	c-12.8,9.6-23.5,21.9-31,36.1C159.5,86.1,158.4,85.8,157.3,85.8z M69.5,309.6c-11.1,5-24.2,0.1-29.4-10.9
	c-2.5-5.4-2.8-11.5-0.7-17.1s6.1-10.1,11.5-12.6l80.4-37.5c-11.3,18.1-18.9,38.6-22.2,60.2L69.5,309.6z M162.9,492
	c-23.9,0-43.3-19.4-43.3-43.3s19.4-43.3,43.3-43.3s43.3,19.4,43.3,43.3S186.8,492,162.9,492z M348.9,492
	c-23.9,0-43.3-19.4-43.3-43.3s19.4-43.3,43.3-43.3s43.3,19.4,43.3,43.3S372.8,492,348.9,492z M365.5,387.6
	c-5.3-1.4-10.9-2.2-16.6-2.2c-34.8,0-63.2,28.2-63.3,63c-9.7,2.4-19.6,3.6-29.7,3.6c-10,0-20-1.2-29.7-3.6
	c-0.2-34.8-28.5-63-63.3-63c-5.8,0-11.3,0.8-16.6,2.2c-12.5-21.3-19.1-45.8-19.1-71c0-41.9,17.9-80.6,49.2-106.5
	c19.8,21.5,48.1,35,79.5,35s59.8-13.5,79.5-35c31.3,25.9,49.2,64.6,49.2,106.5C384.6,341.8,378,366.2,365.5,387.6z"/>
<path fill="#A16370" d="M433,256c1.4,0.6,2.8,0.9,4.2,0.9c3.8,0,7.4-2.2,9.1-5.8c2.3-5,0.1-11-4.9-13.3l-0.1,0
	c-5-2.3-10.9-0.1-13.2,4.9C425.8,247.8,428,253.7,433,256z"/>
<path fill="#A16370" d="M322.1,281.3c-3.9-3.9-10.2-3.9-14.1,0s-3.9,10.2,0,14.1l20,20c2,2,4.5,2.9,7.1,2.9s5.1-1,7.1-2.9l20-20
	c3.9-3.9,3.9-10.2,0-14.1c-3.9-3.9-10.2-3.9-14.1,0l-12.9,12.9L322.1,281.3z"/>
<path fill="#A16370" d="M269.2,281.3l-12.9,12.9l-12.9-12.9c-3.9-3.9-10.2-3.9-14.1,0s-3.9,10.2,0,14.1l20,20c2,2,4.5,2.9,7.1,2.9
	c2.6,0,5.1-1,7.1-2.9l20-20c3.9-3.9,3.9-10.2,0-14.1C279.4,277.4,273.1,277.4,269.2,281.3z"/>
<path fill="#A16370" d="M190.4,281.3l-12.9,12.9l-12.9-12.9c-3.9-3.9-10.2-3.9-14.1,0s-3.9,10.2,0,14.1l20,20c2,2,4.5,2.9,7.1,2.9
	s5.1-1,7.1-2.9l20-20c3.9-3.9,3.9-10.2,0-14.1C200.6,277.4,194.3,277.4,190.4,281.3z"/>
<path fill="#A16370" d="M348,334.1L335.1,347l-12.9-12.9c-3.9-3.9-10.2-3.9-14.1,0s-3.9,10.2,0,14.1l20,20c2,2,4.5,2.9,7.1,2.9
	s5.1-1,7.1-2.9l20-20c3.9-3.9,3.9-10.2,0-14.1C358.2,330.2,351.9,330.2,348,334.1z"/>
<path fill="#A16370" d="M269.2,334.1L256.3,347l-12.9-12.9c-3.9-3.9-10.2-3.9-14.1,0s-3.9,10.2,0,14.1l20,20c2,2,4.5,2.9,7.1,2.9
	c2.6,0,5.1-1,7.1-2.9l20-20c3.9-3.9,3.9-10.2,0-14.1C279.4,330.2,273.1,330.2,269.2,334.1z"/>
<path fill="#A16370" d="M190.4,334.1L177.5,347l-12.9-12.9c-3.9-3.9-10.2-3.9-14.1,0s-3.9,10.2,0,14.1l20,20c2,2,4.5,2.9,7.1,2.9
	s5.1-1,7.1-2.9l20-20c3.9-3.9,3.9-10.2,0-14.1C200.6,330.2,194.3,330.2,190.4,334.1z"/>
<path fill="#A16370" d="M244,193.7c2.9,3.6,7.3,5.7,11.9,5.7s9-2.1,11.9-5.7l9.5-11.7c3.8-4.6,4.5-10.9,1.9-16.2
	c-2.6-5.4-7.9-8.7-13.8-8.7h-19c-6,0-11.3,3.3-13.8,8.7c-2.6,5.4-1.8,11.6,1.9,16.2L244,193.7z"/>
<path fill="#A16370" d="M212.9,138c2.6,0,5.2-1.1,7.1-2.9s2.9-4.4,2.9-7.1s-1.1-5.2-2.9-7.1s-4.4-2.9-7.1-2.9s-5.2,1.1-7.1,2.9
	s-2.9,4.4-2.9,7.1s1.1,5.2,2.9,7.1S210.3,138,212.9,138z"/>
<path fill="#A16370" d="M298.9,138c2.6,0,5.2-1.1,7.1-2.9s2.9-4.4,2.9-7.1s-1.1-5.2-2.9-7.1s-4.4-2.9-7.1-2.9s-5.2,1.1-7.1,2.9
	s-2.9,4.4-2.9,7.1s1.1,5.2,2.9,7.1S296.3,138,298.9,138z"/>
</svg>
