<?xml version="1.0" encoding="utf-8"?>
<!-- Generator: Adobe Illustrator 23.0.3, SVG Export Plug-In . SVG Version: 6.00 Build 0)  -->
<svg version="1.1" id="Слой_1" xmlns="http://www.w3.org/2000/svg" xmlns:xlink="http://www.w3.org/1999/xlink" x="0px" y="0px"
	 viewBox="0 0 480 480" enable-background="new 0 0 480 480" xml:space="preserve">
<path fill="#A16370" d="M372.1,104c-9.7,0-19.4,1.7-28.5,5C338,49.8,288.3,0,232.1,0c-58.5,0-109.9,53.9-111.9,116.2
	c-27-9.6-57.2-2.3-76.8,18.7c-19.6,21-24.9,51.6-13.4,77.9C41.4,239,67.4,256,96.1,256h0.6c3,20.8,17.4,38.1,37.2,44.9
	s41.9,2,57-12.6c3,1.6,6,3,9.2,4.1V392c0,39.7-32.3,72-72,72c-4.4,0-8,3.6-8,8s3.6,8,8,8h208c4.4,0,8-3.6,8-8s-3.6-8-8-8
	c-38.1,0-69.6-29.7-71.9-67.7c15.3-10.2,64.9-45,67.9-71.7c0.9-6.7-1.5-13.5-6.3-18.2c-5.4-5.7-13.2-8.5-21.1-7.6
	c-14.9,1.7-29.9,16-40.6,28.8v-43.6c6.3,2.7,13.1,4.1,20,4.1c19.1-0.1,36.7-10.6,45.8-27.4c12.8,7.5,27.4,11.5,42.2,11.4
	c46.4,0,84-37.6,84-84S418.5,104,372.1,104z M306.5,314.7c3-0.4,5.9,0.7,7.9,3c1.4,1.3,2.1,3.3,1.8,5.2
	c-1.8,16.8-40.5,47.2-64.4,62.4c-2.3,1.5-3.7,4-3.7,6.8c0,28.7,14,55.5,37.5,72H178.6c23.5-16.5,37.5-43.3,37.5-72v-96.3
	c1.3,0.1,2.7,0.3,4,0.3c9.8,0,19.4-2.5,28-7.1V352c0,3.6,2.4,6.7,5.8,7.7s7.1-0.4,9-3.5C272.4,341,292.7,316.3,306.5,314.7z
	 M372.1,256c-14.8,0-29.2-4.9-41-13.8c-2.1-1.6-4.8-2-7.3-1.2c-2.5,0.8-4.4,2.8-5.2,5.3c-4.6,15.2-18.6,25.7-34.5,25.8
	c-7.7,0-15.1-2.5-21.3-7c-3.3-2.4-7.8-2-10.6,1c-15.1,16.3-40,18.7-58,5.6c-3.5-2.5-8.3-1.9-11,1.5c-10.6,13.2-28.3,18.3-44.3,12.8
	c-16-5.5-26.7-20.5-26.9-37.5c0-0.2,0-0.7,0-0.9c0-4.4-3.6-8-8-8c-0.3,0-0.7,0-1,0.1c-2.3,0.3-4.7,0.5-7,0.5
	c-23.6,0.1-44.8-14.7-52.8-36.9c-8-22.2-1.3-47.1,16.9-62.2c18.2-15.1,43.9-17.1,64.2-5.1c2.6,1.5,5.8,1.5,8.3-0.1
	c2.5-1.6,4-4.5,3.7-7.5c-0.2-2.7-0.4-5.4-0.4-8.2c0-55.4,44.9-104,96-104c51.1,0,96,48.6,96,104l-0.1,1c0,2.8,1.4,5.5,3.9,6.9
	c2.4,1.5,5.4,1.5,7.9,0.2c25-13.5,55.6-10,77,8.6c21.4,18.6,28.9,48.6,18.9,75.1C425.8,238.4,400.4,256,372.1,256z"/>
<path fill="#A16370" d="M402.4,170.3c-2.6,3-6.4,4.7-10.4,4.7c-4,0-7.7-1.7-10.4-4.7c-3.1-3.1-8.2-3.1-11.3,0
	c-3.1,3.1-3.1,8.2,0,11.3c5.9,5.9,13.9,9.2,22.2,9.4c8-0.1,15.6-3.5,21.1-9.4c3-3.1,3-8.1-0.1-11.2S405.6,167.4,402.4,170.3
	L402.4,170.3z"/>
<path fill="#A16370" d="M362.4,203.2c-2.6,3-6.4,4.7-10.4,4.7c-4,0-7.7-1.7-10.4-4.7c-3.1-3.1-8.2-3.1-11.3,0
	c-3.1,3.1-3.1,8.2,0,11.3c5.9,5.9,13.9,9.3,22.2,9.4c8-0.1,15.6-3.5,21.1-9.4c3.1-3.1,3.2-8.2,0-11.4
	C370.7,200.1,365.6,200.1,362.4,203.2z"/>
<path fill="#A16370" d="M125.8,162.4c-3.1-3.1-8.1-3.2-11.3-0.1c-2.6,3-6.4,4.7-10.4,4.7c-4,0-7.8-1.7-10.4-4.7
	c-3.1-3-8.1-3-11.2,0.1s-3.1,8.1-0.1,11.2c5.4,5.9,13.1,9.3,21.1,9.4c8.3-0.2,16.3-3.5,22.2-9.4
	C128.8,170.5,128.8,165.5,125.8,162.4z"/>
<path fill="#A16370" d="M154.5,195.2c-2.6,3-6.4,4.7-10.4,4.7c-4,0-7.8-1.7-10.4-4.7c-3.1-3-8.1-3-11.2,0.1s-3.1,8.1-0.1,11.2
	c5.4,5.9,13.1,9.3,21.1,9.4c8.3-0.2,16.3-3.5,22.2-9.4c3.1-3.1,3.2-8.2,0.1-11.3C162.7,192.1,157.6,192.1,154.5,195.2z"/>
<path fill="#A16370" d="M210.4,82.3c-2.6,3-6.4,4.7-10.4,4.7c-4,0-7.7-1.7-10.4-4.7c-3.1-3.1-8.2-3.1-11.3,0
	c-3.1,3.1-3.1,8.2,0,11.3c5.9,5.9,13.9,9.2,22.2,9.4c8-0.1,15.6-3.5,21.1-9.4c3-3.1,3-8.1-0.1-11.2S213.6,79.4,210.4,82.3
	L210.4,82.3z"/>
<path fill="#A16370" d="M282.4,99.2c-2.6,3-6.4,4.7-10.4,4.7c-4,0-7.8-1.7-10.4-4.7c-3.1-3.1-8.2-3.1-11.3,0
	c-3.1,3.1-3.1,8.2,0,11.3c5.9,5.9,13.9,9.3,22.2,9.4c8-0.1,15.6-3.5,21.1-9.4c3.1-3.1,3.2-8.2,0-11.4
	C290.7,96.1,285.6,96.1,282.4,99.2z"/>
</svg>
