<?xml version="1.0" encoding="utf-8"?>
<!-- Generator: Adobe Illustrator 23.0.3, SVG Export Plug-In . SVG Version: 6.00 Build 0)  -->
<svg version="1.1" id="Слой_1" xmlns="http://www.w3.org/2000/svg" xmlns:xlink="http://www.w3.org/1999/xlink" x="0px" y="0px"
	 viewBox="0 0 512 512" enable-background="new 0 0 512 512" xml:space="preserve">
<path fill="#A16370" d="M278.7,222.9c-4.8-2.8-10.9-1.1-13.6,3.7l-0.1,0.2c-2.7,4.8-1.1,10.9,3.7,13.6c1.6,0.9,3.3,1.3,5,1.3
	c3.5,0,6.8-1.8,8.7-5l0.1-0.2C285.1,231.8,283.5,225.7,278.7,222.9z"/>
<path fill="#A16370" d="M474,96c10.1,0,19.7-4,26.9-11.1C508,77.7,512,68.2,512,58c0-10.1-4-19.7-11.1-26.9
	C493.7,24,484.1,20,474,20c-10.2,0-19.7,4-26.9,11.1C440,38.3,436,47.9,436,58c0,6.7,1.7,13.2,5,18.9l-25.8,25.8
	c-18.9-9.4-40-14.6-62.3-14.6c-36.4,0-70.4,13.6-96.9,38.6c-26.5-25-60.5-38.6-96.9-38.6c-22.3,0-43.5,5.3-62.3,14.6L71,76.9
	c3.3-5.7,5-12.1,5-18.9c0-10.1-4-19.7-11.1-26.9C57.7,24,48.2,20,38,20c-10.1,0-19.7,4-26.9,11.1C4,38.3,0,47.9,0,58
	c0,10.2,4,19.7,11.1,26.9C18.3,92.1,27.9,96,38,96c6.7,0,13.2-1.7,18.9-5L79,113.1c-14.3,9.9-26.8,22.4-36.8,36.7
	c-0.5,0.6-0.9,1.2-1.2,1.8C25,175.3,15.7,204,15.7,234.8c0,34.9,22.5,78.1,66.8,128.4c11.1,12.6,23.1,25,35.2,36.9l-46.6,46.6
	c-3.9,3.9-3.9,10.2,0,14.1c2,2,4.5,2.9,7.1,2.9s5.1-1,7.1-2.9l46.9-46.9c17.4,16.3,34.7,31.3,50.1,44.2c0,0,0.1,0.1,0.1,0.1
	c5.8,4.8,11.4,9.4,16.6,13.6c16.1,13,36.4,20.1,57.1,20.1s41-7.1,57.1-20.1c19-15.3,42.8-35.3,66.8-57.9l75,75c2,2,4.5,2.9,7.1,2.9
	s5.1-1,7.1-2.9c3.9-3.9,3.9-10.2,0-14.1l-74.8-74.8c12.1-11.9,24-24.3,35.2-36.9c44.3-50.3,66.8-93.5,66.8-128.4
	c0-50.6-25.1-95.3-63.3-121.7L455.1,91C460.8,94.3,467.3,96,474,96z M25.3,70.7c-7-7-7-18.4,0-25.5C28.7,41.9,33.2,40,38,40
	s9.3,1.9,12.7,5.3c7,7,7,18.4,0,25.5l0,0C47.3,74.1,42.8,76,38,76S28.7,74.1,25.3,70.7z M461.3,45.3c3.4-3.4,7.9-5.3,12.7-5.3
	s9.3,1.9,12.7,5.3c7,7,7,18.4,0,25.5c-3.4,3.4-7.9,5.3-12.7,5.3c-4.8,0-9.3-1.9-12.7-5.3c0,0,0,0,0,0
	C454.3,63.7,454.3,52.3,461.3,45.3z M244.5,143.3c-6.2,7.2-12.1,14.7-17.6,22.3c-20.1-13-35.7-32.1-44.3-54.6
	c-0.1-0.3-0.2-0.5-0.3-0.8C205.6,114.7,227.1,126.1,244.5,143.3z M194.3,222.1c-33-20.5-58.6-51.4-72.5-87.8
	c-2.3-6-4.3-12.1-5.9-18.3c13.5-5.2,28-8,43.2-8c0.5,0,0.9,0,1.4,0c1,3.4,2.1,6.8,3.4,10.2c10.1,26.3,28.3,48.8,51.8,64.1
	C207.6,195.1,200.5,208.4,194.3,222.1z M97.6,124.9c1.6,5.6,3.4,11.1,5.5,16.6c15.9,41.5,45.4,76.6,83.4,99.3
	c-5.5,14.4-10,29.2-13.4,44.3c-51.4-27.6-91-72.4-112-127.1C71,144.6,83.4,133.4,97.6,124.9z M48.3,179.1
	c24.7,54.8,67.1,99.2,120.9,126.4c-2.6,15.8-4,31.8-4.2,47.9c-51.2-22.3-95.1-57.7-127.5-103.1c-1.1-5.4-1.7-10.6-1.7-15.6
	C35.7,214.9,40.2,195.9,48.3,179.1z M97.5,350c-10.1-11.4-19-22.4-26.6-32.9c27.8,24.4,59.6,44.1,94.5,58.2
	c0.8,15.8,2.8,31.6,6,47.3c-10-8.8-20.4-18.2-30.7-28c-0.4-0.7-0.9-1.3-1.4-1.9c-0.7-0.7-1.4-1.2-2.2-1.7
	C123.4,378,109.9,364.1,97.5,350z M324,302.6c14.8-45.3,46.3-82.2,88.7-103.8c16.5-8.4,34.1-14.2,52.2-17.1
	c6.1,13.6,10,28.4,11.1,44c-14.9,2-29.2,6.5-42.8,13.3c-58.4,29.7-86.5,97.9-66.4,159.8c-12.2,11.5-24.4,22.3-35.9,32.2
	C312.6,390.5,310.1,345.2,324,302.6z M458.2,290.8c-23,20.1-48.7,36.5-76.4,48.9c5.7-34.6,27.3-66,60.4-82.8
	c10.5-5.4,21.6-9,33.1-10.9C473.3,259.4,467.6,274.3,458.2,290.8z M383.2,383.1c-1.6-7-2.5-14-2.8-21.1
	c14.3-5.9,28.1-12.7,41.4-20.5c-2.4,2.8-4.8,5.7-7.4,8.5C404.6,361.3,394,372.4,383.2,383.1z M454.7,163.2
	c-17.7,3.5-34.8,9.5-51,17.8c-47.2,24-82.3,65-98.7,115.4c-16,49.2-12.4,101.6,10.2,148c-5.1,4.2-10,8.2-14.6,11.9
	c-7.2,5.8-15.2,9.9-23.7,12.5c-0.1-0.2-0.2-0.4-0.3-0.5c-31-61-34.9-132.6-10.7-196.6c2-5.2-0.6-10.9-5.8-12.9
	c-5.2-2-10.9,0.7-12.9,5.8c-12.8,34-18.5,69.5-16.8,105.7c1.6,35.4,10.3,69.6,25.8,101.7c-15.9,0-31.7-5.2-44.6-15.6
	c-4.4-3.5-9.1-7.4-14-11.4c-33.8-114.6,2-239.3,91.8-318.5c0.3-0.3,0.6-0.5,0.8-0.8c18.8-11.5,40.3-17.6,62.8-17.6
	c13.7,0,26.9,2.3,39.3,6.6c-6.1,2.6-12.1,5.3-18,8.3c-33.4,17-62.2,40.3-85.6,69.3c-3.5,4.3-2.8,10.6,1.5,14.1
	c1.8,1.5,4.1,2.2,6.3,2.2c2.9,0,5.8-1.3,7.8-3.7c21.6-26.8,48.2-48.3,79.1-64c10.9-5.6,22.3-10.3,33.9-14.2
	C432,135.9,444.8,148.5,454.7,163.2z"/>
<path fill="#A16370" d="M51.5,472c-2.2,0-4.4,0.9-6,2.5c-1.6,1.6-2.5,3.8-2.5,6c0,2.2,0.9,4.4,2.5,6c1.6,1.6,3.8,2.5,6,2.5
	c2.2,0,4.4-0.9,6-2.5c1.6-1.6,2.5-3.8,2.5-6c0-2.2-0.9-4.4-2.5-6C55.9,472.9,53.7,472,51.5,472z"/>
</svg>
