<?xml version="1.0" encoding="utf-8"?>
<!-- Generator: Adobe Illustrator 23.0.3, SVG Export Plug-In . SVG Version: 6.00 Build 0)  -->
<svg version="1.1" id="Слой_1" xmlns="http://www.w3.org/2000/svg" xmlns:xlink="http://www.w3.org/1999/xlink" x="0px" y="0px"
	 viewBox="0 0 512 512" style="enable-background:new 0 0 512 512;" xml:space="preserve">
<style type="text/css">
	.st0{fill:#A16370;}
</style>
<path class="st0" d="M364.8,210.2c-2.6,0-5.2,1.1-7.1,2.9c-1.9,1.9-2.9,4.4-2.9,7.1c0,2.6,1.1,5.2,2.9,7.1c1.9,1.9,4.4,2.9,7.1,2.9
	c2.6,0,5.2-1.1,7.1-2.9c1.9-1.9,2.9-4.4,2.9-7.1c0-2.6-1.1-5.2-2.9-7.1C370,211.3,367.5,210.2,364.8,210.2z"/>
<path class="st0" d="M475.3,395.2l-31.5-82.7c-14.3-37.4-47.7-64.5-87.2-70.7l-59.5-9.3v-17.4c22.7-13.6,37.9-38.5,37.9-66.8v-29.6
	c0-5.5-4.5-10-10-10c-14.3,0-28.3-5.3-39-14.7c0.5-0.4,1-0.7,1.5-1.1c4.4-3.3,5.3-9.6,2-14c-3.3-4.4-9.6-5.3-14-2
	c-16.1,12.1-36.1,18.7-56.2,18.7h-30.3c-5.5,0-10,4.5-10,10v42.7c0,28.2,15.1,53,37.7,66.7v17.5l-57.8,9V118c0-54,44-98,98-98
	s98,44,98,98v63.6c0,5.5,4.5,10,10,10s10-4.5,10-10V118c0-65.1-52.9-118-118-118s-118,52.9-118,118v128.2
	c-31.4,10.5-57,34.7-69,66.2l-31.5,82.7c-5.9,15.4-3.8,32.6,5.5,46.1c9.3,13.5,24.7,21.6,41.1,21.6c7.6,0,15.1-1.7,21.8-5.1V502
	c0,5.5,4.5,10,10,10c5.5,0,10-4.5,10-10v-54.7c0-0.4,0-0.7-0.1-1.1l50.5-29.9V502c0,5.5,4.5,10,10,10h136.9c5.5,0,10-4.5,10-10v-87
	l52.5,31.1c0,0.4-0.1,0.8-0.1,1.2V502c0,5.5,4.5,10,10,10s10-4.5,10-10v-44.2c6.8,3.4,14.4,5.1,22,5.1c16.4,0,31.8-8.1,41.1-21.6
	C479.1,427.8,481.1,410.5,475.3,395.2z M198.9,148.3v-32.7h20.3c16.9,0,33.6-3.8,48.8-11c12.5,12.9,29.2,21.2,46.9,23.5v20.2
	c0,31.9-26,57.9-58,57.9S198.9,180.2,198.9,148.3z M256.9,226.2c6.9,0,13.7-0.9,20.1-2.6v13.1c0,11.1-9,20.1-20.1,20.1
	c-11.2,0-20.2-9-20.2-20.1v-13.2C243.1,225.3,249.9,226.2,256.9,226.2z M202.8,364.7c6.7-1,13.5-0.5,19.9,1.5l-14.2,8.4L202.8,364.7
	z M314.2,492H197.3v-87.5l60.2-35.5l44.1,26.4c0.6,0.6,1.2,1.1,2,1.5l10.6,6.3V492z M305.2,374.2l-13.6-8.1c6.1-3,13.1-3.8,19.7-2.5
	L305.2,374.2z M453.3,429.9c-5.7,8.2-14.7,13-24.7,13c-5.4,0-10.6-1.4-15.3-4.2l-91-54.2l11.8-20.5l59.8,26.3
	c5.1,2.2,11-0.1,13.2-5.1c2.2-5.1-0.1-11-5.1-13.2l-68-29.9c-4.5-2-9.7-0.4-12.4,3.7c-6.6-2.3-13.7-3.1-20.6-2.6l28.1-16.6
	c4.8-2.8,6.3-8.9,3.5-13.7c-2.8-4.8-8.9-6.3-13.7-3.5l-61.5,36.3L197,309.4c-4.7-2.8-10.9-1.3-13.7,3.4c-2.8,4.7-1.3,10.9,3.4,13.7
	l30.2,18.1c-8.2-0.9-16.5-0.3-24.6,1.9l-0.2-0.3c-2.6-4.4-8-6.2-12.7-4.2l-68,29.9c-5.1,2.2-7.4,8.1-5.1,13.2
	c2.2,5.1,8.1,7.4,13.2,5.1l59.8-26.3l12,20.7l-9.1,5.4l-82,48.6c-4.6,2.7-9.9,4.2-15.3,4.2c-10,0-19-4.7-24.7-13
	c-5.7-8.2-6.9-18.3-3.3-27.7l31.5-82.7c11.7-30.7,39.2-52.9,71.6-58l59.7-9.3c6.1,14.4,20.4,24.5,37.1,24.5
	c16.6,0,30.9-10.1,37-24.5l59.6,9.3c32.5,5.1,59.9,27.3,71.6,58l31.5,82.7C460.2,411.6,459,421.7,453.3,429.9z"/>
<path class="st0" d="M277.2,174.6c3.9-3.9,3.9-10.2,0-14.1c-3.9-3.9-10.2-3.9-14.1,0c-1.6,1.6-3.8,2.6-6.2,2.6s-4.5-0.9-6.2-2.6
	c-3.9-3.9-10.2-3.9-14.1,0c-3.9,3.9-3.9,10.2,0,14.1c5.4,5.4,12.6,8.4,20.3,8.4S271.8,180,277.2,174.6z"/>
<path class="st0" d="M234.7,414.9c-2.6,0-5.2,1.1-7.1,2.9c-1.9,1.9-2.9,4.4-2.9,7.1c0,2.6,1.1,5.2,2.9,7.1c1.9,1.9,4.4,2.9,7.1,2.9
	c2.6,0,5.2-1.1,7.1-2.9c1.9-1.9,2.9-4.4,2.9-7.1c0-2.6-1.1-5.2-2.9-7.1C239.9,416,237.3,414.9,234.7,414.9z"/>
<path class="st0" d="M278.7,414.9c-2.6,0-5.2,1.1-7.1,2.9c-1.9,1.9-2.9,4.4-2.9,7.1c0,2.6,1.1,5.2,2.9,7.1c1.9,1.9,4.4,2.9,7.1,2.9
	c2.6,0,5.2-1.1,7.1-2.9c1.9-1.9,2.9-4.4,2.9-7.1c0-2.6-1.1-5.2-2.9-7.1C283.9,416,281.3,414.9,278.7,414.9z"/>
<path class="st0" d="M234.7,449c-2.6,0-5.2,1.1-7.1,2.9c-1.9,1.9-2.9,4.4-2.9,7.1s1.1,5.2,2.9,7.1c1.9,1.9,4.4,2.9,7.1,2.9
	c2.6,0,5.2-1.1,7.1-2.9c1.9-1.9,2.9-4.4,2.9-7.1s-1.1-5.2-2.9-7.1C239.9,450.1,237.3,449,234.7,449z"/>
<path class="st0" d="M278.7,449c-2.6,0-5.2,1.1-7.1,2.9c-1.9,1.9-2.9,4.4-2.9,7.1s1.1,5.2,2.9,7.1c1.9,1.9,4.4,2.9,7.1,2.9
	c2.6,0,5.2-1.1,7.1-2.9c1.9-1.9,2.9-4.4,2.9-7.1s-1.1-5.2-2.9-7.1C283.9,450.1,281.3,449,278.7,449z"/>
</svg>
